<svg width="19" height="26" viewBox="0 0 19 26" fill="none" xmlns="http://www.w3.org/2000/svg">
<path d="M3.13086 3H17.1934V4.21094H3.13086V3Z" fill="white"/>
<path d="M17.9744 5.1875H3.02129C2.82192 5.18467 2.62518 5.1415 2.44295 5.06057C2.26072 4.97965 2.09676 4.86265 1.96097 4.71664C1.82518 4.57063 1.72038 4.39863 1.65287 4.21102C1.58536 4.0234 1.55654 3.82405 1.56817 3.625C1.5672 3.22887 1.71672 2.84716 1.98649 2.55709C2.25626 2.26701 2.62613 2.09023 3.02129 2.0625H17.9744C18.1816 2.0625 18.3803 1.98019 18.5268 1.83368C18.6734 1.68716 18.7557 1.48845 18.7557 1.28125C18.7557 1.07405 18.6734 0.875336 18.5268 0.728823C18.3803 0.58231 18.1816 0.5 17.9744 0.5H3.02129C2.21159 0.528357 1.44456 0.870074 0.881957 1.45308C0.319357 2.03609 0.00517217 2.81481 0.00566856 3.625C-0.00188952 3.75249 -0.00188952 3.88032 0.00566856 4.00781C-0.00185864 4.07009 -0.00185864 4.13304 0.00566856 4.19531V22.375C0.00517217 23.1852 0.319357 23.9639 0.881957 24.5469C1.44456 25.1299 2.21159 25.4716 3.02129 25.5H17.9744C18.1816 25.5 18.3803 25.4177 18.5268 25.2712C18.6734 25.1247 18.7557 24.926 18.7557 24.7188V6.16406V6.09375V6.02344C18.7561 5.81089 18.6756 5.60615 18.5305 5.45086C18.3853 5.29558 18.1865 5.2014 17.9744 5.1875Z" fill="white"/>
</svg>
