<svg width="24" height="24" viewBox="0 0 24 24" fill="none" xmlns="http://www.w3.org/2000/svg">
<path d="M17.3724 3.36723C17.2563 3.25083 17.1184 3.15847 16.9665 3.09545C16.8147 3.03244 16.6519 3 16.4874 3C16.323 3 16.1602 3.03244 16.0084 3.09545C15.8565 3.15847 15.7186 3.25083 15.6024 3.36723L7.29244 11.6772C7.19974 11.7697 7.12619 11.8796 7.07601 12.0006C7.02583 12.1216 7 12.2513 7 12.3822C7 12.5132 7.02583 12.6429 7.07601 12.7639C7.12619 12.8848 7.19974 12.9947 7.29244 13.0872L15.6024 21.3972C16.0924 21.8872 16.8824 21.8872 17.3724 21.3972C17.8624 20.9072 17.8624 20.1172 17.3724 19.6272L10.1324 12.3772L17.3824 5.12723C17.8624 4.64723 17.8624 3.84723 17.3724 3.36723Z" fill="#010620"/>
</svg>
