<svg width="20" height="20" viewBox="0 0 20 20" fill="none" xmlns="http://www.w3.org/2000/svg">
<path fill-rule="evenodd" clip-rule="evenodd" d="M2.70841 5.83331V16.25C2.70841 16.5262 2.81816 16.7912 3.01351 16.9865C3.20886 17.1819 3.47381 17.2916 3.75008 17.2916H16.2501C16.5263 17.2916 16.7913 17.1819 16.9867 16.9865C17.182 16.7912 17.2917 16.5262 17.2917 16.25V5.83331H2.70841ZM3.75008 2.70831C3.19755 2.70831 2.66764 2.92781 2.27694 3.31851C1.88624 3.70921 1.66675 4.23911 1.66675 4.79165L1.66675 16.25C1.66675 16.8025 1.88624 17.3324 2.27694 17.7231C2.66764 18.1138 3.19755 18.3333 3.75008 18.3333H16.2501C16.8026 18.3333 17.3325 18.1138 17.7232 17.7231C18.1139 17.3324 18.3334 16.8025 18.3334 16.25V4.79165C18.3334 4.23911 18.1139 3.70921 17.7232 3.31851C17.3325 2.92781 16.8026 2.70831 16.2501 2.70831H3.75008Z" fill="#010620"/>
<path fill-rule="evenodd" clip-rule="evenodd" d="M5.31258 1.66666C5.45072 1.66666 5.58319 1.72153 5.68087 1.81921C5.77854 1.91688 5.83341 2.04936 5.83341 2.18749V2.70832C5.83341 2.84646 5.77854 2.97893 5.68087 3.07661C5.58319 3.17428 5.45072 3.22916 5.31258 3.22916C5.17445 3.22916 5.04197 3.17428 4.9443 3.07661C4.84662 2.97893 4.79175 2.84646 4.79175 2.70832V2.18749C4.79175 2.04936 4.84662 1.91688 4.9443 1.81921C5.04197 1.72153 5.17445 1.66666 5.31258 1.66666ZM14.6876 1.66666C14.8257 1.66666 14.9582 1.72153 15.0559 1.81921C15.1535 1.91688 15.2084 2.04936 15.2084 2.18749V2.70832C15.2084 2.84646 15.1535 2.97893 15.0559 3.07661C14.9582 3.17428 14.8257 3.22916 14.6876 3.22916C14.5494 3.22916 14.417 3.17428 14.3193 3.07661C14.2216 2.97893 14.1667 2.84646 14.1667 2.70832V2.18749C14.1667 2.04936 14.2216 1.91688 14.3193 1.81921C14.417 1.72153 14.5494 1.66666 14.6876 1.66666Z" fill="#010620"/>
<path d="M13.1251 8.43749C13.1251 8.29936 13.18 8.16688 13.2776 8.06921C13.3753 7.97153 13.5078 7.91666 13.6459 7.91666H14.6876C14.8257 7.91666 14.9582 7.97153 15.0559 8.06921C15.1535 8.16688 15.2084 8.29936 15.2084 8.43749V9.47916C15.2084 9.61729 15.1535 9.74977 15.0559 9.84744C14.9582 9.94512 14.8257 9.99999 14.6876 9.99999H13.6459C13.5078 9.99999 13.3753 9.94512 13.2776 9.84744C13.18 9.74977 13.1251 9.61729 13.1251 9.47916V8.43749ZM10.0001 8.43749C10.0001 8.29936 10.055 8.16688 10.1526 8.06921C10.2503 7.97153 10.3828 7.91666 10.5209 7.91666H11.5626C11.7007 7.91666 11.8332 7.97153 11.9309 8.06921C12.0285 8.16688 12.0834 8.29936 12.0834 8.43749V9.47916C12.0834 9.61729 12.0285 9.74977 11.9309 9.84744C11.8332 9.94512 11.7007 9.99999 11.5626 9.99999H10.5209C10.3828 9.99999 10.2503 9.94512 10.1526 9.84744C10.055 9.74977 10.0001 9.61729 10.0001 9.47916V8.43749ZM4.79175 11.5625C4.79175 11.4244 4.84662 11.2919 4.9443 11.1942C5.04197 11.0965 5.17445 11.0417 5.31258 11.0417H6.35425C6.49238 11.0417 6.62486 11.0965 6.72253 11.1942C6.82021 11.2919 6.87508 11.4244 6.87508 11.5625V12.6042C6.87508 12.7423 6.82021 12.8748 6.72253 12.9724C6.62486 13.0701 6.49238 13.125 6.35425 13.125H5.31258C5.17445 13.125 5.04197 13.0701 4.9443 12.9724C4.84662 12.8748 4.79175 12.7423 4.79175 12.6042V11.5625ZM7.91675 11.5625C7.91675 11.4244 7.97162 11.2919 8.0693 11.1942C8.16697 11.0965 8.29945 11.0417 8.43758 11.0417H9.47925C9.61738 11.0417 9.74986 11.0965 9.84753 11.1942C9.94521 11.2919 10.0001 11.4244 10.0001 11.5625V12.6042C10.0001 12.7423 9.94521 12.8748 9.84753 12.9724C9.74986 13.0701 9.61738 13.125 9.47925 13.125H8.43758C8.29945 13.125 8.16697 13.0701 8.0693 12.9724C7.97162 12.8748 7.91675 12.7423 7.91675 12.6042V11.5625Z" fill="#010620"/>
</svg>
