<svg width="18" height="18" viewBox="0 0 18 18" fill="none" xmlns="http://www.w3.org/2000/svg">
<path d="M10.9573 8.99914L16.9246 3.04571C17.1859 2.7844 17.3327 2.42997 17.3327 2.06042C17.3327 1.69086 17.1859 1.33643 16.9246 1.07512C16.6632 0.813799 16.3088 0.666992 15.9393 0.666992C15.5697 0.666992 15.2153 0.813799 14.954 1.07512L9.00053 7.04242L3.04711 1.07512C2.78579 0.813799 2.43137 0.666992 2.06181 0.666992C1.69225 0.666992 1.33783 0.813799 1.07651 1.07512C0.815191 1.33643 0.668384 1.69086 0.668384 2.06042C0.668384 2.42997 0.815191 2.7844 1.07651 3.04571L7.04381 8.99914L1.07651 14.9526C0.946437 15.0816 0.843197 15.2351 0.772743 15.4042C0.702289 15.5733 0.666016 15.7547 0.666016 15.9379C0.666016 16.1211 0.702289 16.3025 0.772743 16.4716C0.843197 16.6407 0.946437 16.7942 1.07651 16.9232C1.20552 17.0532 1.359 17.1565 1.52811 17.2269C1.69722 17.2974 1.87861 17.3337 2.06181 17.3337C2.24501 17.3337 2.42639 17.2974 2.5955 17.2269C2.76461 17.1565 2.9181 17.0532 3.04711 16.9232L9.00053 10.9559L14.954 16.9232C15.083 17.0532 15.2365 17.1565 15.4056 17.2269C15.5747 17.2974 15.7561 17.3337 15.9393 17.3337C16.1225 17.3337 16.3038 17.2974 16.473 17.2269C16.6421 17.1565 16.7955 17.0532 16.9246 16.9232C17.0546 16.7942 17.1579 16.6407 17.2283 16.4716C17.2988 16.3025 17.3351 16.1211 17.3351 15.9379C17.3351 15.7547 17.2988 15.5733 17.2283 15.4042C17.1579 15.2351 17.0546 15.0816 16.9246 14.9526L10.9573 8.99914Z" fill="#7A7A7A"/>
</svg>
