<svg width="32" height="32" viewBox="0 0 32 32" fill="none" xmlns="http://www.w3.org/2000/svg">
<path d="M16 2.66666C8.64807 2.66666 2.66666 8.64807 2.66666 16C2.66666 23.3519 8.64807 29.3333 16 29.3333C23.3519 29.3333 29.3333 23.3519 29.3333 16C29.3333 8.64807 23.3519 2.66666 16 2.66666ZM20.8276 19.3776C20.9268 19.4718 21.0062 19.5851 21.061 19.7105C21.1158 19.836 21.1449 19.9711 21.1467 20.108C21.1484 20.2449 21.1228 20.3807 21.0712 20.5075C21.0196 20.6344 20.9432 20.7496 20.8464 20.8464C20.7496 20.9432 20.6344 21.0196 20.5075 21.0712C20.3807 21.1228 20.2449 21.1484 20.108 21.1467C19.9711 21.1449 19.836 21.1158 19.7105 21.061C19.5851 21.0062 19.4718 20.9268 19.3776 20.8276L16 17.4506L12.6224 20.8276C12.4285 21.0118 12.1703 21.113 11.9029 21.1095C11.6354 21.1061 11.3799 20.9984 11.1908 20.8092C11.0016 20.6201 10.8939 20.3646 10.8904 20.0971C10.887 19.8297 10.9882 19.5715 11.1724 19.3776L14.5493 16L11.1724 12.6224C10.9882 12.4285 10.887 12.1703 10.8904 11.9029C10.8939 11.6354 11.0016 11.3799 11.1908 11.1908C11.3799 11.0016 11.6354 10.8939 11.9029 10.8904C12.1703 10.887 12.4285 10.9882 12.6224 11.1724L16 14.5493L19.3776 11.1724C19.5715 10.9882 19.8297 10.887 20.0971 10.8904C20.3646 10.8939 20.6201 11.0016 20.8092 11.1908C20.9984 11.3799 21.1061 11.6354 21.1095 11.9029C21.113 12.1703 21.0118 12.4285 20.8276 12.6224L17.4506 16L20.8276 19.3776Z" fill="#F9F9F9"/>
</svg>
