<svg width="20" height="20" viewBox="0 0 20 20" fill="none" xmlns="http://www.w3.org/2000/svg">
<path d="M15.6998 1.66699L18.333 4.30023L16.3256 6.30851L13.6924 3.67527L15.6998 1.66699Z" fill="white" fill-opacity="0.5"/>
<path d="M6.05518 13.9444H8.68841L15.0845 7.54828L12.4513 4.91504L6.05518 11.3112V13.9444Z" fill="white" fill-opacity="0.5"/>
<path d="M15.7104 16.5781H6.19392C6.17109 16.5781 6.1474 16.5869 6.12457 16.5869C6.09561 16.5869 6.06664 16.579 6.0368 16.5781H3.422V4.28967H9.43192L11.1874 2.53418H3.422C2.45384 2.53418 1.6665 3.32064 1.6665 4.28967V16.5781C1.6665 17.5471 2.45384 18.3336 3.422 18.3336H15.7104C16.176 18.3336 16.6225 18.1486 16.9518 17.8194C17.281 17.4902 17.4659 17.0437 17.4659 16.5781V8.96981L15.7104 10.7253V16.5781Z" fill="white" fill-opacity="0.5"/>
</svg>
