<svg width="30" height="31" viewBox="0 0 30 31" fill="none" xmlns="http://www.w3.org/2000/svg">
<path d="M29.4 16.3163C29.4 15.083 29.2999 14.183 29.0833 13.2496H15V18.8162H23.2666C23.1 20.1996 22.2 22.283 20.2 23.6829L20.1719 23.8692L24.6248 27.3188L24.9333 27.3496C27.7666 24.7329 29.4 20.8829 29.4 16.3163Z" fill="#4285F4"/>
<path d="M15 30.983C19.05 30.983 22.4499 29.6496 24.9333 27.3497L20.2 23.683C18.9333 24.5663 17.2333 25.183 15 25.183C11.0334 25.183 7.66673 22.5664 6.46662 18.9497L6.29071 18.9646L1.66053 22.548L1.59998 22.7163C4.06662 27.6163 9.1333 30.983 15 30.983Z" fill="#34A853"/>
<path d="M6.4666 18.9497C6.14994 18.0164 5.96668 17.0163 5.96668 15.983C5.96668 14.9496 6.14994 13.9496 6.44994 13.0163L6.44156 12.8175L1.75335 9.17664L1.59996 9.2496C0.58334 11.283 0 13.5663 0 15.983C0 18.3997 0.58334 20.6829 1.59996 22.7163L6.4666 18.9497Z" fill="#FBBC05"/>
<path d="M15 6.78299C17.8166 6.78299 19.7166 7.99965 20.8 9.01639L25.0333 4.88303C22.4334 2.46637 19.05 0.983032 15 0.983032C9.1333 0.983032 4.06662 4.34967 1.59998 9.24963L6.44996 13.0164C7.66673 9.39969 11.0334 6.78299 15 6.78299Z" fill="#EB4335"/>
</svg>
