<svg width="24" height="24" viewBox="0 0 24 24" fill="none" xmlns="http://www.w3.org/2000/svg">
<path d="M15.3334 7.33336C15.3334 8.21742 14.9822 9.06526 14.357 9.69039C13.7319 10.3155 12.8841 10.6667 12 10.6667C11.116 10.6667 10.2681 10.3155 9.643 9.69039C9.01788 9.06526 8.66669 8.21742 8.66669 7.33336C8.66669 6.44931 9.01788 5.60146 9.643 4.97634C10.2681 4.35122 11.116 4.00003 12 4.00003C12.8841 4.00003 13.7319 4.35122 14.357 4.97634C14.9822 5.60146 15.3334 6.44931 15.3334 7.33336Z" fill="#010620"/>
<path d="M20.8889 9.55554C20.8889 10.1449 20.6548 10.7101 20.238 11.1269C19.8213 11.5436 19.2561 11.7778 18.6667 11.7778C18.0773 11.7778 17.5121 11.5436 17.0953 11.1269C16.6786 10.7101 16.4445 10.1449 16.4445 9.55554C16.4445 8.96617 16.6786 8.40093 17.0953 7.98419C17.5121 7.56744 18.0773 7.33331 18.6667 7.33331C19.2561 7.33331 19.8213 7.56744 20.238 7.98419C20.6548 8.40093 20.8889 8.96617 20.8889 9.55554Z" fill="#010620"/>
<path d="M16.4444 17.3334C16.4444 16.1546 15.9762 15.0242 15.1427 14.1907C14.3092 13.3572 13.1787 12.8889 12 12.8889C10.8212 12.8889 9.69078 13.3572 8.85729 14.1907C8.02379 15.0242 7.55554 16.1546 7.55554 17.3334V20.6667H16.4444V17.3334Z" fill="#010620"/>
<path d="M7.55553 9.55554C7.55553 10.1449 7.3214 10.7101 6.90465 11.1269C6.48791 11.5436 5.92268 11.7778 5.33331 11.7778C4.74394 11.7778 4.17871 11.5436 3.76196 11.1269C3.34521 10.7101 3.11108 10.1449 3.11108 9.55554C3.11108 8.96617 3.34521 8.40093 3.76196 7.98419C4.17871 7.56744 4.74394 7.33331 5.33331 7.33331C5.92268 7.33331 6.48791 7.56744 6.90465 7.98419C7.3214 8.40093 7.55553 8.96617 7.55553 9.55554Z" fill="#010620"/>
<path d="M18.6666 20.6666V17.3333C18.6683 16.2036 18.3814 15.0922 17.8333 14.1044C18.3259 13.9784 18.8408 13.9665 19.3387 14.0697C19.8366 14.1729 20.3044 14.3884 20.7063 14.6999C21.1082 15.0113 21.4337 15.4105 21.6579 15.8669C21.8821 16.3233 21.9991 16.8248 22 17.3333V20.6666H18.6666Z" fill="#010620"/>
<path d="M6.16667 14.1044C5.61861 15.0923 5.33178 16.2037 5.33333 17.3333V20.6667H2V17.3333C1.99979 16.8245 2.11607 16.3223 2.33994 15.8654C2.56381 15.4084 2.88933 15.0088 3.29154 14.6971C3.69375 14.3854 4.16198 14.17 4.66034 14.0672C5.15871 13.9645 5.67398 13.9772 6.16667 14.1044Z" fill="#010620"/>
</svg>
