<svg width="30" height="30" viewBox="0 0 30 30" fill="none" xmlns="http://www.w3.org/2000/svg">
<path d="M15 2.50006C8.0971 2.50006 2.5 8.09716 2.5 15.0001C2.5 21.903 8.0971 27.5001 15 27.5001C21.9029 27.5001 27.5 21.903 27.5 15.0001C27.5 8.09716 21.9029 2.50006 15 2.50006ZM15 22.2545C14.3834 22.2545 13.8839 21.7551 13.8839 21.1385C13.8839 20.5218 14.3834 20.0224 15 20.0224C15.6166 20.0224 16.1161 20.5218 16.1161 21.1385C16.1161 21.7551 15.6166 22.2545 15 22.2545ZM16.755 16.1301C16.5023 16.2277 16.2849 16.3991 16.1311 16.6221C15.9773 16.8451 15.8943 17.1092 15.8929 17.3801V18.0135C15.8929 18.1362 15.7924 18.2367 15.6696 18.2367H14.3304C14.2076 18.2367 14.1071 18.1362 14.1071 18.0135V17.4136C14.1071 16.769 14.2941 16.1329 14.6624 15.6027C15.0223 15.0838 15.5246 14.6876 16.1161 14.4616C17.0647 14.096 17.6786 13.3008 17.6786 12.4331C17.6786 11.2026 16.476 10.201 15 10.201C13.524 10.201 12.3214 11.2026 12.3214 12.4331V12.6452C12.3214 12.7679 12.221 12.8684 12.0982 12.8684H10.7589C10.6362 12.8684 10.5357 12.7679 10.5357 12.6452V12.4331C10.5357 11.3366 11.0156 10.3126 11.8862 9.55084C12.7232 8.81703 13.8281 8.41524 15 8.41524C16.1719 8.41524 17.2768 8.81982 18.1138 9.55084C18.9844 10.3126 19.4643 11.3366 19.4643 12.4331C19.4643 14.0458 18.4012 15.4967 16.755 16.1301Z" fill="white"/>
</svg>
