<svg width="20" height="20" viewBox="0 0 20 20" fill="none" xmlns="http://www.w3.org/2000/svg">
<path d="M9.15357 18.3332C9.46904 18.3259 9.77177 18.2073 10.0082 17.9984C10.2447 17.7894 10.3996 17.5036 10.4456 17.1914H7.81143C7.85874 17.512 8.02093 17.8046 8.26781 18.0146C8.51469 18.2247 8.82946 18.3379 9.15357 18.3332Z" fill="#F9F9F9"/>
<path d="M16.5904 15.2533L16.4201 15.103C15.9371 14.6727 15.5143 14.1791 15.1631 13.6357C14.7796 12.8858 14.5498 12.0668 14.4871 11.2269V8.75294C14.485 8.45244 14.4582 8.15261 14.4069 7.85651C13.5586 7.68215 12.7967 7.22001 12.25 6.54832C11.7033 5.87663 11.4056 5.03667 11.4072 4.17065V3.85514C10.8843 3.59783 10.3225 3.42862 9.74451 3.35435V2.72334C9.74451 2.54603 9.67408 2.37598 9.5487 2.2506C9.42332 2.12522 9.25326 2.05478 9.07595 2.05478C8.89863 2.05478 8.72858 2.12522 8.6032 2.2506C8.47782 2.37598 8.40739 2.54603 8.40739 2.72334V3.37939C7.11318 3.56195 5.92873 4.20658 5.07269 5.19424C4.21665 6.18191 3.74683 7.44593 3.74997 8.75294V11.2269C3.68725 12.0668 3.4574 12.8858 3.0739 13.6357C2.72879 14.1777 2.31278 14.6712 1.83693 15.103L1.66666 15.2533V16.6655H16.5904V15.2533Z" fill="#F9F9F9"/>
<path d="M15.1631 6.67463C16.546 6.67463 17.6671 5.55356 17.6671 4.17064C17.6671 2.78773 16.546 1.66666 15.1631 1.66666C13.7802 1.66666 12.6591 2.78773 12.6591 4.17064C12.6591 5.55356 13.7802 6.67463 15.1631 6.67463Z" fill="#FF0000"/>
</svg>
