<svg width="17" height="18" viewBox="0 0 17 18" fill="none" xmlns="http://www.w3.org/2000/svg">
<path d="M8.15357 17.3332C8.46904 17.3259 8.77177 17.2073 9.00823 16.9984C9.24468 16.7894 9.39962 16.5036 9.44562 16.1914H6.81143C6.85874 16.512 7.02093 16.8046 7.26781 17.0146C7.51469 17.2247 7.82946 17.3379 8.15357 17.3332Z" fill="#F9F9F9"/>
<path d="M15.5904 14.2533L15.4201 14.103C14.9371 13.6727 14.5143 13.1791 14.1631 12.6357C13.7796 11.8858 13.5498 11.0668 13.4871 10.2269V7.75294C13.485 7.45244 13.4582 7.15261 13.4069 6.85651C12.5586 6.68215 11.7967 6.22001 11.25 5.54832C10.7033 4.87663 10.4056 4.03667 10.4072 3.17065V2.85514C9.88429 2.59783 9.32252 2.42862 8.74451 2.35435V1.72334C8.74451 1.54603 8.67408 1.37598 8.5487 1.2506C8.42332 1.12522 8.25326 1.05478 8.07595 1.05478C7.89863 1.05478 7.72858 1.12522 7.6032 1.2506C7.47782 1.37598 7.40739 1.54603 7.40739 1.72334V2.37939C6.11318 2.56195 4.92873 3.20658 4.07269 4.19424C3.21665 5.18191 2.74683 6.44593 2.74997 7.75294V10.2269C2.68725 11.0668 2.4574 11.8858 2.0739 12.6357C1.72879 13.1777 1.31278 13.6712 0.836928 14.103L0.666656 14.2533V15.6655H15.5904V14.2533Z" fill="#F9F9F9"/>
<path d="M14.1631 5.67463C15.546 5.67463 16.6671 4.55356 16.6671 3.17064C16.6671 1.78773 15.546 0.666656 14.1631 0.666656C12.7802 0.666656 11.6591 1.78773 11.6591 3.17064C11.6591 4.55356 12.7802 5.67463 14.1631 5.67463Z" fill="#FF0000"/>
</svg>
