<svg width="24" height="24" viewBox="0 0 24 24" fill="none" xmlns="http://www.w3.org/2000/svg">
<path d="M9.33929 12.4775C9.33929 13.1588 9.60995 13.8122 10.0917 14.294C10.5735 14.7757 11.2269 15.0464 11.9082 15.0464C12.5896 15.0464 13.243 14.7757 13.7248 14.294C14.2065 13.8122 14.4772 13.1588 14.4772 12.4775C14.4772 11.7961 14.2065 11.1427 13.7248 10.6609C13.243 10.1792 12.5896 9.90849 11.9082 9.90849C11.2269 9.90849 10.5735 10.1792 10.0917 10.6609C9.60995 11.1427 9.33929 11.7961 9.33929 12.4775ZM21.8675 11.8857C19.6931 7.30513 16.4062 4.99995 12 4.99995C7.59148 4.99995 4.30689 7.30513 2.13245 11.888C2.04523 12.0726 2 12.2744 2 12.4786C2 12.6828 2.04523 12.8845 2.13245 13.0692C4.30689 17.6498 7.59378 19.9549 12 19.9549C16.4085 19.9549 19.6931 17.6498 21.8675 13.0669C22.0442 12.6954 22.0442 12.2641 21.8675 11.8857ZM11.9082 16.5144C9.67876 16.5144 7.87132 14.7069 7.87132 12.4775C7.87132 10.248 9.67876 8.44052 11.9082 8.44052C14.1377 8.44052 15.9452 10.248 15.9452 12.4775C15.9452 14.7069 14.1377 16.5144 11.9082 16.5144Z" fill="#010620"/>
</svg>
