<svg width="24" height="24" viewBox="0 0 24 24" fill="none" xmlns="http://www.w3.org/2000/svg">
<path d="M21.6324 17.6665L17.0688 13.5171C16.8531 13.321 16.5696 13.2165 16.2782 13.2255C15.9868 13.2345 15.7104 13.3564 15.5071 13.5654L12.8206 16.3283C12.1739 16.2048 10.8739 15.7995 9.53567 14.4646C8.19745 13.1253 7.79217 11.8219 7.67204 11.1797L10.4327 8.49205C10.642 8.28899 10.764 8.01247 10.773 7.72101C10.782 7.42955 10.6773 7.14601 10.481 6.93042L6.3327 2.36789C6.13628 2.15162 5.86328 2.02043 5.5717 2.00219C5.28011 1.98395 4.9929 2.0801 4.77106 2.27022L2.33487 4.3595C2.14078 4.5543 2.02492 4.81357 2.0093 5.08812C1.99246 5.36878 1.67137 12.0172 6.82667 17.1748C11.3241 21.6711 16.9576 22 18.5092 22C18.7359 22 18.8752 21.9933 18.9122 21.991C19.1867 21.9757 19.4458 21.8593 19.6397 21.6643L21.7279 19.227C21.9187 19.0059 22.0156 18.7189 21.9978 18.4273C21.9799 18.1358 21.8488 17.8627 21.6324 17.6665Z" fill="#3F4356"/>
</svg>
