<svg width="32" height="32" viewBox="0 0 32 32" fill="none" xmlns="http://www.w3.org/2000/svg">
<path d="M16 2.66666C8.63689 2.66666 2.66666 8.63689 2.66666 16C2.66666 23.3631 8.63689 29.3333 16 29.3333C23.3631 29.3333 29.3333 23.3631 29.3333 16C29.3333 8.63689 23.3631 2.66666 16 2.66666ZM21.7143 16.7143C21.7143 16.8452 21.6071 16.9524 21.4762 16.9524H16.9524V21.4762C16.9524 21.6071 16.8452 21.7143 16.7143 21.7143H15.2857C15.1548 21.7143 15.0476 21.6071 15.0476 21.4762V16.9524H10.5238C10.3928 16.9524 10.2857 16.8452 10.2857 16.7143V15.2857C10.2857 15.1548 10.3928 15.0476 10.5238 15.0476H15.0476V10.5238C15.0476 10.3928 15.1548 10.2857 15.2857 10.2857H16.7143C16.8452 10.2857 16.9524 10.3928 16.9524 10.5238V15.0476H21.4762C21.6071 15.0476 21.7143 15.1548 21.7143 15.2857V16.7143Z" fill="#F9F9F9"/>
</svg>
