<svg width="20" height="20" viewBox="0 0 20 20" fill="none" xmlns="http://www.w3.org/2000/svg">
<path d="M18.0595 16.7451L14.9124 13.6073C15.9278 12.3136 16.4787 10.7162 16.4767 9.07168C16.4767 7.60711 16.0424 6.17542 15.2287 4.95767C14.4151 3.73992 13.2585 2.7908 11.9055 2.23033C10.5524 1.66986 9.06347 1.52322 7.62703 1.80895C6.1906 2.09467 4.87115 2.79993 3.83554 3.83554C2.79993 4.87115 2.09467 6.1906 1.80895 7.62703C1.52322 9.06347 1.66986 10.5524 2.23033 11.9055C2.7908 13.2585 3.73992 14.4151 4.95767 15.2287C6.17542 16.0424 7.60711 16.4767 9.07168 16.4767C10.7162 16.4787 12.3136 15.9278 13.6073 14.9124L16.7451 18.0595C16.8312 18.1463 16.9336 18.2151 17.0464 18.2621C17.1591 18.3091 17.2801 18.3333 17.4023 18.3333C17.5245 18.3333 17.6455 18.3091 17.7583 18.2621C17.8711 18.2151 17.9735 18.1463 18.0595 18.0595C18.1463 17.9735 18.2151 17.8711 18.2621 17.7583C18.3091 17.6455 18.3333 17.5245 18.3333 17.4023C18.3333 17.2801 18.3091 17.1591 18.2621 17.0464C18.2151 16.9336 18.1463 16.8312 18.0595 16.7451ZM3.51791 9.07168C3.51791 7.97325 3.84364 6.89949 4.45389 5.98617C5.06415 5.07286 5.93153 4.36102 6.94635 3.94067C7.96116 3.52032 9.07784 3.41034 10.1552 3.62463C11.2325 3.83892 12.2221 4.36787 12.9988 5.14458C13.7755 5.92128 14.3044 6.91087 14.5187 7.98819C14.733 9.06552 14.623 10.1822 14.2027 11.197C13.7823 12.2118 13.0705 13.0792 12.1572 13.6895C11.2439 14.2997 10.1701 14.6254 9.07168 14.6254C7.59873 14.6254 6.18611 14.0403 5.14458 12.9988C4.10304 11.9573 3.51791 10.5446 3.51791 9.07168Z" fill="#010620" fill-opacity="0.5"/>
</svg>
