<svg width="24" height="24" viewBox="0 0 24 24" fill="none" xmlns="http://www.w3.org/2000/svg">
<path d="M12 1.99998C9.243 1.99998 7 4.24298 7 6.99998V9.99998H6C5.46957 9.99998 4.96086 10.2107 4.58579 10.5858C4.21071 10.9608 4 11.4695 4 12V20C4 20.5304 4.21071 21.0391 4.58579 21.4142C4.96086 21.7893 5.46957 22 6 22H18C18.5304 22 19.0391 21.7893 19.4142 21.4142C19.7893 21.0391 20 20.5304 20 20V12C20 11.4695 19.7893 10.9608 19.4142 10.5858C19.0391 10.2107 18.5304 9.99998 18 9.99998H17V6.99998C17 4.24298 14.757 1.99998 12 1.99998ZM9 6.99998C9 5.34598 10.346 3.99998 12 3.99998C13.654 3.99998 15 5.34598 15 6.99998V9.99998H9V6.99998ZM13 17.723V20H11V17.723C10.6504 17.5228 10.3697 17.2213 10.1948 16.8583C10.02 16.4954 9.95928 16.0879 10.0207 15.6897C10.0821 15.2916 10.2627 14.9214 10.5388 14.6279C10.8148 14.3345 11.1733 14.1316 11.567 14.046C11.8594 13.9813 12.1626 13.9831 12.4542 14.0513C12.7459 14.1194 13.0185 14.2521 13.252 14.4396C13.4855 14.6272 13.6739 14.8647 13.8034 15.1348C13.9328 15.4048 14 15.7005 14 16C13.9994 16.3497 13.9067 16.6931 13.7311 16.9956C13.5556 17.2981 13.3034 17.549 13 17.723Z" fill="#010620" fill-opacity="0.75"/>
</svg>
