<svg width="14" height="14" viewBox="0 0 14 14" fill="none" xmlns="http://www.w3.org/2000/svg">
<path d="M12.8334 10.7187C12.8334 10.8174 12.7973 10.9029 12.7251 10.975C12.653 11.0472 12.5675 11.0833 12.4688 11.0833C12.37 11.0833 12.2846 11.0472 12.2124 10.975C12.1403 10.9029 12.1042 10.8174 12.1042 10.7187V5.92215L8.08238 7.93875C7.77856 8.09066 7.41777 8.16662 7.00002 8.16662C6.58227 8.16662 6.22148 8.09066 5.91766 7.93875L1.61102 5.78543C1.3148 5.63352 1.16669 5.45313 1.16669 5.24425C1.16669 5.03538 1.3148 4.85878 1.61102 4.71447L5.91766 2.56115C6.22148 2.40924 6.58227 2.33328 7.00002 2.33328C7.41777 2.33328 7.77856 2.40924 8.08238 2.56115L12.389 4.71447C12.6473 4.84359 12.7916 5.0031 12.822 5.19298C12.8296 5.20058 12.8334 5.21577 12.8334 5.23856V10.7187ZM8.44696 8.66792L10.6459 7.56277V9.16922C10.6459 9.49583 10.2908 9.77496 9.58059 10.0066C8.87041 10.2383 8.01022 10.3541 7.00002 10.3541C5.98982 10.3541 5.12963 10.2383 4.41945 10.0066C3.70928 9.77496 3.35419 9.49583 3.35419 9.16922V7.56277L5.55308 8.66792C5.8569 8.81983 6.33921 8.89578 7.00002 8.89578C7.66083 8.89578 8.14314 8.81983 8.44696 8.66792Z" fill="black"/>
</svg>
